PathFileType	4	(X/Y/Z)	C:\Users\WrightLab\Desktop\Jo\P2_Trial36.trc
DataRate	CameraRate	NumFrames	NumMarkers	Units	OrigDataRate	OrigDataStartFrame	OrigNumFrames
100.00	100.00	       9	19	mm	100.00	241	       641
Frame#	Time	Headset_Front			Headset_Back			Headset_Left			Headset_Right			Left_Shoulder			Right_Shoulder			Sternum			C7			Left Elbow			Right Elbow			Left Wrist			Right Wrist			Left ASIS			Right ASIS			S2			Left Knee			Right Knee			Left Ankle			Right Ankle			
		X1	Y1	Z1	X2	Y2	Z2	X3	Y3	Z3	X4	Y4	Z4	X5	Y5	Z5	X6	Y6	Z6	X7	Y7	Z7	X8	Y8	Z8	X9	Y9	Z9	X10	Y10	Z10	X11	Y11	Z11	X12	Y12	Z12	X13	Y13	Z13	X14	Y14	Z14	X15	Y15	Z15	X16	Y16	Z16	X17	Y17	Z17	X18	Y18	Z18	X19	Y19	Z19	

241	2.400	-660.08325	1438.32227	305.27466	-748.93866	1673.52856	118.26505	-621.94855	1552.73975	127.20047	-778.87579	1530.76587	295.66217	-635.90118	1427.77039	63.42451	-945.83002	1426.57874	156.93529	-777.23199	1304.42712	166.90579	-836.37854	1423.55774	5.16517	-539.12445	1151.17456	36.13007	-1108.15747	1122.91040	151.04350	-574.32111	1222.41443	159.68904	-1211.62781	905.65857	211.32137	-703.35040	1012.03925	181.56787	-835.01605	981.46149	208.94945	-801.43408	931.22400	-62.28397	-610.35181	447.34232	156.35023	-966.97034	518.86523	167.55528	-683.63147	94.85972	152.94037	-1012.48419	217.80536	-15.17676	
242	2.410	-657.13867	1438.83472	305.57532	-745.11096	1675.26221	126.81097	-618.62219	1554.74402	135.51288	-775.36737	1532.21204	304.24197	-633.03265	1429.26526	70.08385	-942.30408	1427.99011	167.52423	-773.82672	1306.70654	177.27385	-833.15271	1425.52380	13.65832	-536.29651	1151.14343	42.68166	-1105.15002	1124.70093	155.49957	-570.86896	1223.03491	164.95448	-1209.00366	907.05511	213.15756	-699.94153	1013.78406	187.87418	-830.98419	984.82660	219.28021	-800.52930	933.80994	-55.53855	-607.08435	447.22455	154.57430	-962.34692	524.87378	192.45111	-682.04858	95.07267	153.08926	-1009.99200	221.43765	11.21611	
243	2.420	-653.79889	1440.26392	315.21478	-742.54675	1676.93176	134.87665	-615.06055	1556.47766	143.47729	-771.90833	1533.64905	312.46494	-629.66095	1431.48669	77.69244	-938.72284	1429.32178	175.94162	-769.54468	1307.99487	185.64731	-830.07391	1427.36121	22.37432	-533.22443	1152.37976	49.38338	-1102.06470	1126.45544	159.75386	-566.42462	1225.27832	172.23779	-1206.20728	907.92987	215.73537	-696.15430	1015.24847	193.85933	-826.48602	986.37280	226.96718	-799.46234	935.97760	-48.03551	-605.12604	446.33066	153.18806	-957.79340	531.94202	215.66080	-678.81934	93.70492	154.98477	-1007.39343	226.50110	40.17636	
244	2.430	-648.75110	1443.00500	330.49701	-738.37946	1677.94470	144.30403	-611.01636	1558.30847	151.92749	-768.05109	1534.41467	320.81079	-626.36176	1433.11414	85.64701	-935.20959	1430.79907	184.36281	-765.85034	1309.72852	195.69263	-826.49677	1429.17944	30.78882	-529.02258	1156.49841	57.00180	-1098.90308	1127.99609	164.70335	-563.21368	1225.95386	178.50449	-1203.33252	909.67755	216.73305	-692.35767	1016.90472	201.59636	-822.68988	989.00629	234.49359	-798.17303	937.29510	-40.22902	-603.13641	446.37802	150.34409	-951.23450	539.27002	239.07037	-676.87744	93.66519	156.42882	-1004.87012	230.17146	67.31249	
245	2.440	-646.48383	1442.76794	330.29211	-734.85449	1679.31567	152.27034	-607.26855	1559.49512	160.37791	-764.49658	1535.56958	328.95209	-622.41150	1434.79492	93.72734	-931.45471	1432.27063	192.20219	-761.63049	1311.36267	202.23839	-823.11407	1430.76294	39.08936	-527.61218	1155.92810	60.72565	-1095.59229	1129.97534	169.35555	-559.96875	1227.51941	184.60852	-1200.65576	910.46765	218.84557	-689.14160	1017.77222	206.85039	-818.74219	991.07971	241.97937	-797.13422	939.73029	-32.94398	-601.96216	445.70520	147.66371	-945.12537	548.21625	262.45328	-674.19800	93.60455	158.14362	-1001.89526	231.35297	92.27329	
246	2.450	-642.64319	1443.61072	337.23547	-731.47949	1680.54993	160.92041	-603.74939	1560.88806	169.65285	-761.00928	1536.90833	337.28748	-618.80719	1436.34717	100.74766	-927.78699	1433.47961	201.26665	-757.53894	1313.64636	213.70071	-819.47772	1432.42944	47.67496	-525.41089	1157.28210	65.99321	-1092.08716	1131.22986	174.14893	-555.62964	1227.65820	189.42419	-1197.40479	911.70990	219.77722	-684.80023	1019.61664	214.24448	-814.97705	993.35675	249.06136	-796.34235	940.88129	-25.60314	-601.07056	444.68515	145.54515	-938.83490	557.40356	283.63565	-671.69763	92.82989	160.18903	-998.55872	234.47598	122.53985	
247	2.460	-639.00702	1445.12622	345.88834				-599.54114	1562.61255	177.25446	-757.32941	1538.12219	345.43774	-614.64008	1437.05493	108.83253	-923.71716	1434.58911	209.27058	-753.80750	1315.27954	221.87416	-815.70856	1433.69617	56.23952	-521.68115	1159.24072	71.58170	-1088.46985	1132.58655	178.22775	-552.91956	1229.78137	196.89598	-1194.25793	912.71436	221.83113	-681.34357	1020.94238	221.46503	-810.83270	994.19373	257.56003	-795.35699	942.05835	-17.53729	-600.88434	444.80634	143.37724	-932.24561	566.18286	303.56561	-669.30798	92.59660	162.22861	-995.22601	236.37131	150.70341	
248	2.470	-635.16821	1446.55896	354.33282	-722.69568	1682.11292	178.21831	-595.44379	1563.65515	185.89131	-753.78363	1538.90417	353.35007	-610.76581	1438.01709	116.65539	-919.80695	1435.91199	217.77504	-748.95325	1315.64832	229.30884	-811.93231	1434.95007	64.21418	-517.88599	1160.90833	77.14088	-1084.71179	1133.99878	182.38489	-548.11353	1228.92651	201.61694	-1190.84644	913.59344	222.89041	-677.82233	1020.80530	227.43993	-807.10443	995.67102	264.79016	-794.56201	943.36835	-10.27347	-601.36597	444.42722	140.92636	-924.67010	574.13495	321.99518	-666.94128	92.15060	164.71461	-991.65198	238.54988	181.28641	
249	2.480	-630.77039	1447.09338	361.41766	-720.02948	1683.27185	185.42143	-591.96216	1564.79126	194.23674	-750.12994	1539.50891	361.38586	-607.30286	1439.30859	123.76546	-915.85468	1436.74683	225.99065	-745.90851	1317.27771	237.73116	-807.78534	1435.55457	72.83919	-515.03906	1161.50208	83.51394	-1080.63416	1135.35840	186.04846	-544.98627	1229.15894	208.68115	-1187.37427	914.55859	224.93697	-674.60968	1022.10144	233.78320	-803.90491	996.87915	272.73535	-794.05292	944.51337	-2.30438	-602.02771	444.08289	138.73787	-915.92303	581.64532	340.13968	-664.10132	91.95467	166.48631	-986.87860	238.54181	207.18636	
